<mxfile host="app.diagrams.net" modified="2024-07-23T09:52:45.119Z" agent="Mozilla/5.0 (Windows NT 10.0; Win64; x64) AppleWebKit/537.36 (KHTML, like Gecko) Chrome/126.0.0.0 Safari/537.36" etag="Et8WVQB97rlMvhNNCsAP" version="24.6.4" type="github">
  <diagram name="Page-1" id="JbbE1pCw-xAGmkVy2RNO">
    <mxGraphModel dx="2193" dy="572" grid="1" gridSize="10" guides="1" tooltips="1" connect="1" arrows="1" fold="1" page="1" pageScale="1" pageWidth="850" pageHeight="1100" math="0" shadow="0">
      <root>
        <mxCell id="0" />
        <mxCell id="1" parent="0" />
        <mxCell id="kpAV1-R5DHTqGjA8jZql-6" style="edgeStyle=orthogonalEdgeStyle;rounded=0;orthogonalLoop=1;jettySize=auto;html=1;" edge="1" parent="1" source="kpAV1-R5DHTqGjA8jZql-1">
          <mxGeometry relative="1" as="geometry">
            <mxPoint x="430" y="155" as="targetPoint" />
          </mxGeometry>
        </mxCell>
        <mxCell id="kpAV1-R5DHTqGjA8jZql-10" style="edgeStyle=orthogonalEdgeStyle;rounded=0;orthogonalLoop=1;jettySize=auto;html=1;entryX=0;entryY=0.5;entryDx=0;entryDy=0;" edge="1" parent="1" source="kpAV1-R5DHTqGjA8jZql-1" target="kpAV1-R5DHTqGjA8jZql-8">
          <mxGeometry relative="1" as="geometry" />
        </mxCell>
        <mxCell id="kpAV1-R5DHTqGjA8jZql-11" style="edgeStyle=orthogonalEdgeStyle;rounded=0;orthogonalLoop=1;jettySize=auto;html=1;entryX=0.5;entryY=1;entryDx=0;entryDy=0;" edge="1" parent="1" source="kpAV1-R5DHTqGjA8jZql-1" target="kpAV1-R5DHTqGjA8jZql-9">
          <mxGeometry relative="1" as="geometry">
            <Array as="points">
              <mxPoint x="550" y="280" />
              <mxPoint x="940" y="280" />
            </Array>
          </mxGeometry>
        </mxCell>
        <mxCell id="kpAV1-R5DHTqGjA8jZql-1" value="SE Pending on Client" style="rounded=0;whiteSpace=wrap;html=1;" vertex="1" parent="1">
          <mxGeometry x="470" y="130" width="160" height="50" as="geometry" />
        </mxCell>
        <mxCell id="kpAV1-R5DHTqGjA8jZql-4" style="edgeStyle=orthogonalEdgeStyle;rounded=0;orthogonalLoop=1;jettySize=auto;html=1;entryX=0;entryY=0.5;entryDx=0;entryDy=0;" edge="1" parent="1" source="kpAV1-R5DHTqGjA8jZql-2" target="kpAV1-R5DHTqGjA8jZql-3">
          <mxGeometry relative="1" as="geometry" />
        </mxCell>
        <mxCell id="kpAV1-R5DHTqGjA8jZql-2" value="SE Pending on TECH" style="rounded=0;whiteSpace=wrap;html=1;" vertex="1" parent="1">
          <mxGeometry x="70" y="130" width="160" height="50" as="geometry" />
        </mxCell>
        <mxCell id="kpAV1-R5DHTqGjA8jZql-5" style="edgeStyle=orthogonalEdgeStyle;rounded=0;orthogonalLoop=1;jettySize=auto;html=1;" edge="1" parent="1" source="kpAV1-R5DHTqGjA8jZql-3" target="kpAV1-R5DHTqGjA8jZql-1">
          <mxGeometry relative="1" as="geometry" />
        </mxCell>
        <mxCell id="kpAV1-R5DHTqGjA8jZql-7" style="edgeStyle=orthogonalEdgeStyle;rounded=0;orthogonalLoop=1;jettySize=auto;html=1;" edge="1" parent="1" source="kpAV1-R5DHTqGjA8jZql-3" target="kpAV1-R5DHTqGjA8jZql-2">
          <mxGeometry relative="1" as="geometry" />
        </mxCell>
        <mxCell id="kpAV1-R5DHTqGjA8jZql-12" style="edgeStyle=orthogonalEdgeStyle;rounded=0;orthogonalLoop=1;jettySize=auto;html=1;entryX=0.5;entryY=1;entryDx=0;entryDy=0;exitX=0.5;exitY=1;exitDx=0;exitDy=0;strokeColor=#76FF61;" edge="1" parent="1" source="kpAV1-R5DHTqGjA8jZql-3" target="kpAV1-R5DHTqGjA8jZql-8">
          <mxGeometry relative="1" as="geometry">
            <Array as="points">
              <mxPoint x="350" y="280" />
              <mxPoint x="750" y="280" />
            </Array>
          </mxGeometry>
        </mxCell>
        <mxCell id="kpAV1-R5DHTqGjA8jZql-3" value="SE Pending on SO" style="rounded=0;whiteSpace=wrap;html=1;" vertex="1" parent="1">
          <mxGeometry x="270" y="130" width="160" height="50" as="geometry" />
        </mxCell>
        <mxCell id="kpAV1-R5DHTqGjA8jZql-8" value="DONE" style="rounded=0;whiteSpace=wrap;html=1;" vertex="1" parent="1">
          <mxGeometry x="670" y="130" width="160" height="50" as="geometry" />
        </mxCell>
        <mxCell id="kpAV1-R5DHTqGjA8jZql-9" value="DONE NO CONCERN&amp;nbsp;&lt;div&gt;5 days&lt;/div&gt;" style="rounded=0;whiteSpace=wrap;html=1;" vertex="1" parent="1">
          <mxGeometry x="860" y="130" width="160" height="50" as="geometry" />
        </mxCell>
        <mxCell id="kpAV1-R5DHTqGjA8jZql-14" value="&lt;span style=&quot;font-size: 48px;&quot;&gt;Ticket Journey&lt;/span&gt;" style="text;html=1;align=left;verticalAlign=middle;whiteSpace=wrap;rounded=0;" vertex="1" parent="1">
          <mxGeometry x="-100" y="10" width="460" height="90" as="geometry" />
        </mxCell>
        <mxCell id="kpAV1-R5DHTqGjA8jZql-16" style="edgeStyle=orthogonalEdgeStyle;rounded=0;orthogonalLoop=1;jettySize=auto;html=1;entryX=0;entryY=0.5;entryDx=0;entryDy=0;" edge="1" parent="1" source="kpAV1-R5DHTqGjA8jZql-15" target="kpAV1-R5DHTqGjA8jZql-2">
          <mxGeometry relative="1" as="geometry" />
        </mxCell>
        <mxCell id="kpAV1-R5DHTqGjA8jZql-15" value="Ticket Creation&lt;div&gt;from SO&lt;/div&gt;" style="ellipse;whiteSpace=wrap;html=1;fontStyle=1" vertex="1" parent="1">
          <mxGeometry x="-100" y="115" width="120" height="80" as="geometry" />
        </mxCell>
        <mxCell id="kpAV1-R5DHTqGjA8jZql-17" value="SE Pending on Client" style="rounded=0;whiteSpace=wrap;html=1;" vertex="1" parent="1">
          <mxGeometry x="450" y="550" width="160" height="50" as="geometry" />
        </mxCell>
        <mxCell id="kpAV1-R5DHTqGjA8jZql-19" value="SE Pending on SO" style="rounded=0;whiteSpace=wrap;html=1;" vertex="1" parent="1">
          <mxGeometry x="250" y="550" width="160" height="50" as="geometry" />
        </mxCell>
        <mxCell id="kpAV1-R5DHTqGjA8jZql-20" value="DONE" style="rounded=0;whiteSpace=wrap;html=1;" vertex="1" parent="1">
          <mxGeometry x="650" y="550" width="160" height="50" as="geometry" />
        </mxCell>
        <mxCell id="kpAV1-R5DHTqGjA8jZql-21" value="DONE NO CONCERN&amp;nbsp;&lt;div&gt;5 days&lt;/div&gt;" style="rounded=0;whiteSpace=wrap;html=1;" vertex="1" parent="1">
          <mxGeometry x="840" y="550" width="160" height="50" as="geometry" />
        </mxCell>
        <mxCell id="kpAV1-R5DHTqGjA8jZql-23" value="&lt;span style=&quot;font-size: 48px;&quot;&gt;Ticket Workflows&lt;/span&gt;" style="text;html=1;align=left;verticalAlign=middle;whiteSpace=wrap;rounded=0;" vertex="1" parent="1">
          <mxGeometry x="-110" y="330" width="460" height="90" as="geometry" />
        </mxCell>
        <mxCell id="kpAV1-R5DHTqGjA8jZql-25" style="edgeStyle=orthogonalEdgeStyle;rounded=0;orthogonalLoop=1;jettySize=auto;html=1;entryX=0.5;entryY=0;entryDx=0;entryDy=0;" edge="1" parent="1" source="kpAV1-R5DHTqGjA8jZql-24" target="kpAV1-R5DHTqGjA8jZql-29">
          <mxGeometry relative="1" as="geometry">
            <mxPoint x="130" y="550" as="targetPoint" />
          </mxGeometry>
        </mxCell>
        <mxCell id="kpAV1-R5DHTqGjA8jZql-24" value="SE Pending On tech Initial" style="rounded=0;whiteSpace=wrap;html=1;" vertex="1" parent="1">
          <mxGeometry x="265" y="460" width="530" height="50" as="geometry" />
        </mxCell>
        <mxCell id="kpAV1-R5DHTqGjA8jZql-27" style="edgeStyle=orthogonalEdgeStyle;rounded=0;orthogonalLoop=1;jettySize=auto;html=1;" edge="1" parent="1" source="kpAV1-R5DHTqGjA8jZql-26" target="kpAV1-R5DHTqGjA8jZql-24">
          <mxGeometry relative="1" as="geometry" />
        </mxCell>
        <mxCell id="kpAV1-R5DHTqGjA8jZql-26" value="Ticket Creation (Manual)" style="rounded=0;whiteSpace=wrap;html=1;fontStyle=1" vertex="1" parent="1">
          <mxGeometry x="265" y="380" width="530" height="50" as="geometry" />
        </mxCell>
        <mxCell id="kpAV1-R5DHTqGjA8jZql-28" value="SE Compute Tech Duration" style="rounded=0;whiteSpace=wrap;html=1;" vertex="1" parent="1">
          <mxGeometry x="50" y="820" width="160" height="50" as="geometry" />
        </mxCell>
        <mxCell id="kpAV1-R5DHTqGjA8jZql-36" style="edgeStyle=orthogonalEdgeStyle;rounded=0;orthogonalLoop=1;jettySize=auto;html=1;entryX=0.5;entryY=0;entryDx=0;entryDy=0;" edge="1" parent="1" source="kpAV1-R5DHTqGjA8jZql-29" target="kpAV1-R5DHTqGjA8jZql-30">
          <mxGeometry relative="1" as="geometry" />
        </mxCell>
        <mxCell id="kpAV1-R5DHTqGjA8jZql-29" value="SE Pending on Tech 1" style="rounded=0;whiteSpace=wrap;html=1;" vertex="1" parent="1">
          <mxGeometry x="50" y="550" width="160" height="50" as="geometry" />
        </mxCell>
        <mxCell id="kpAV1-R5DHTqGjA8jZql-30" value="SE Pending on Tech 2" style="rounded=0;whiteSpace=wrap;html=1;" vertex="1" parent="1">
          <mxGeometry x="50" y="690" width="160" height="50" as="geometry" />
        </mxCell>
        <mxCell id="kpAV1-R5DHTqGjA8jZql-31" value="SE Pending on SO 1" style="rounded=0;whiteSpace=wrap;html=1;" vertex="1" parent="1">
          <mxGeometry x="250" y="630" width="160" height="50" as="geometry" />
        </mxCell>
        <mxCell id="kpAV1-R5DHTqGjA8jZql-32" value="SE Pending on SO 2" style="rounded=0;whiteSpace=wrap;html=1;" vertex="1" parent="1">
          <mxGeometry x="250" y="690" width="160" height="50" as="geometry" />
        </mxCell>
        <mxCell id="kpAV1-R5DHTqGjA8jZql-33" value="SE Pending on CLIENT 1" style="rounded=0;whiteSpace=wrap;html=1;" vertex="1" parent="1">
          <mxGeometry x="450" y="630" width="160" height="50" as="geometry" />
        </mxCell>
        <mxCell id="kpAV1-R5DHTqGjA8jZql-34" value="SE Pending on CLIENT 2" style="rounded=0;whiteSpace=wrap;html=1;" vertex="1" parent="1">
          <mxGeometry x="450" y="690" width="160" height="50" as="geometry" />
        </mxCell>
        <mxCell id="kpAV1-R5DHTqGjA8jZql-35" value="SE Pending on CLIENT Update" style="rounded=0;whiteSpace=wrap;html=1;" vertex="1" parent="1">
          <mxGeometry x="550" y="820" width="160" height="50" as="geometry" />
        </mxCell>
      </root>
    </mxGraphModel>
  </diagram>
</mxfile>
